<?xml version="1.0" encoding="utf-8"?>
<!-- Generator: Adobe Illustrator 15.1.0, SVG Export Plug-In . SVG Version: 6.00 Build 0)  -->
<!DOCTYPE svg PUBLIC "-//W3C//DTD SVG 1.1//EN" "http://www.w3.org/Graphics/SVG/1.1/DTD/svg11.dtd">
<svg version="1.1" xmlns="http://www.w3.org/2000/svg" xmlns:xlink="http://www.w3.org/1999/xlink" x="0px" y="0px"
	 width="313px" height="120px" viewBox="0 0 313 120" enable-background="new 0 0 313 120" fill= "#dd8b26" xml:space="preserve">
<g>
	<path d="M130.29,10.763v13.008h-3.815V10.763h-7.56V7.927h18.951v2.836H130.29z"/>
	<path d="M143.805,23.771V7.926h3.851v6.019h11.917V7.926h3.816v15.844h-3.816v-6.679h-11.917v6.679H143.805z"/>
	<path d="M169.387,23.771V7.926h16.8v2.799h-12.947v3.458h7.54v2.727h-7.54v3.897h13.146v2.964H169.387z"/>
	<path d="M10.551,63.666V30.288h8.414v12.681h26.034V30.288h8.335v33.378h-8.335V49.597H18.965v14.069H10.551L10.551,63.666z"/>
	<path d="M70.556,30.288v27.135H95.7V30.288h8.882v25.477c0,3.032-0.661,5.106-1.98,6.224c-1.321,1.119-3.829,1.677-7.526,1.677
		H71.183c-3.67,0-6.15-0.552-7.444-1.657c-1.293-1.104-1.94-3.186-1.94-6.245V30.288H70.556z"/>
	<path d="M112.963,63.666V30.288h5.792l29.361,22.163V30.288h7.631v33.378h-5.832l-29.283-22.51v22.51H112.963L112.963,63.666z"/>
	<path d="M198.233,36.417h-26.178v20.851h26.178v-7.093h-13.666v-5.936h21.888v11.524c0,3.058-0.614,5.138-1.847,6.245
		c-1.231,1.104-3.596,1.656-7.091,1.656h-24.906c-3.496,0-5.859-0.552-7.092-1.656c-1.232-1.105-1.848-3.187-1.848-6.245V38.15
		c0-3.032,0.615-5.099,1.848-6.205c1.231-1.104,3.595-1.657,7.092-1.657h24.906c3.469,0,5.826,0.54,7.071,1.619
		c1.244,1.079,1.866,3.032,1.866,5.858v0.887L198.233,40V36.417L198.233,36.417z"/>
	<path d="M212.705,63.666V30.288h42.283v5.897H222.4v7.284h18.979v5.743H222.4v8.21h33.089v6.244H212.705L212.705,63.666z"/>
	<path d="M259.534,63.666V30.288h31.1c2.844,0,4.905,0.507,6.182,1.522c1.273,1.016,1.914,2.666,1.914,4.953v7.862
		c0,2.261-0.641,3.893-1.914,4.896c-1.276,1.002-3.338,1.503-6.182,1.503h-4.745l16.429,12.642h-12.082l-14.475-12.642h-7.935
		v12.642L259.534,63.666L259.534,63.666z M287.047,36.03h-19.221v9.25h19.221c1.46,0,2.464-0.205,3.009-0.616
		c0.544-0.411,0.816-1.105,0.816-2.083v-3.854c0-0.975-0.272-1.669-0.816-2.082C289.511,36.236,288.507,36.03,287.047,36.03z"/>
	<path d="M48.935,79.274H17.744v25.185h31.191v-8.567H32.65v-7.169h26.079v13.92c0,3.694-0.733,6.207-2.2,7.544
		c-1.468,1.334-4.283,2-8.447,2H18.407c-4.166,0-6.981-0.666-8.448-2c-1.468-1.335-2.201-3.85-2.201-7.544V81.369
		c0-3.662,0.733-6.16,2.201-7.496c1.467-1.334,4.282-2.001,8.448-2.001h29.675c4.134,0,6.94,0.651,8.424,1.955
		c1.484,1.304,2.225,3.663,2.225,7.076v1.071l-9.795,1.627v-4.327H48.935z"/>
	<path d="M65.029,112.188l24.327-40.316h9.607l24.705,40.316H112.45l-5.157-8.846h-27.12l-5.157,8.846H65.029z M84.433,95.988
		h18.791l-9.561-16.807L84.433,95.988z"/>
	<path d="M132.947,112.188V71.871h7.996l20.07,23.929l19.973-23.929h8.045v40.317h-9.276V84.441l-18.315,22.904h-1.94
		l-18.552-22.252v27.095H132.947L132.947,112.188z"/>
	<path d="M202.242,112.188V71.871h43.969v7.123h-33.886v8.799h19.735v6.937h-19.735v9.917h34.407v7.542H202.242L202.242,112.188z"/>
	<path d="M295.92,79.088h-28.207v8.519h26.694c4.195,0,7.017,0.66,8.471,1.98c1.45,1.318,2.178,3.825,2.178,7.518v5.539
		c0,3.695-0.743,6.209-2.228,7.543c-1.482,1.336-4.287,2.002-8.421,2.002h-26.599c-4.229,0-7.094-0.666-8.592-2.002
		c-1.5-1.333-2.247-3.848-2.247-7.543v-1.117l8.897-1.629v4.75h30.146v-9.22h-26.551c-4.197,0-7.036-0.675-8.52-2.025
		c-1.483-1.35-2.223-3.855-2.223-7.518v-4.516c0-3.633,0.736-6.121,2.223-7.472c1.48-1.351,4.322-2.025,8.52-2.025h24.327
		c4.133,0,6.966,0.645,8.496,1.931c1.53,1.289,2.294,3.563,2.294,6.82v0.979l-8.66,1.815V79.088z"/>
</g>
</svg>
